<svg xmlns="http://www.w3.org/2000/svg" version="1.1" xmlns:xlink="http://www.w3.org/1999/xlink" xmlns:svgjs="http://svgjs.dev/svgjs" width="1000" height="921" viewBox="0 0 1000 921"><g transform="matrix(1,0,0,1,0.7297463484709397,0.3735630513497199)"><svg viewBox="0 0 268 247" data-background-color="#ffffff" preserveAspectRatio="xMidYMid meet" height="921" width="1000" xmlns="http://www.w3.org/2000/svg" xmlns:xlink="http://www.w3.org/1999/xlink"><g id="tight-bounds" transform="matrix(1,0,0,1,-0.19557202139020546,-0.09997365579206985)"><svg viewBox="0 0 268.39099267349263 247.2" height="247.2" width="268.39099267349263"><g><svg viewBox="0 0 268.39099267349263 247.2" height="247.2" width="268.39099267349263"><g><svg viewBox="0 0 268.39099267349263 247.2" height="247.2" width="268.39099267349263"><g id="textblocktransform"><svg viewBox="0 0 268.39099267349263 247.2" height="247.2" width="268.39099267349263" id="textblock"><g><svg viewBox="0 0 268.39099267349263 247.2" height="247.2" width="268.39099267349263"><path d="M267.763 53.02C266.501 27.36 262.905 20.227 262.905 20.227 251.864-6.202 238.086-0.506 225.708 3.292 203.854 3.446 182.089 9.091 160.286 12.119 114.521 12.581 68.366 4.986 22.829 23.717 18.552 29.464-4.438 24.846 0.761 56.304 2.124 69.39 7.095 83.913 6.943 95.922 7.625 98.026 8.571 93.202 8.975 96.23 10.388 104.39 12.697 100.541 14.59 105.365 11.953 118.246 13.845 128.971 15.65 140.21 12.47 143.135 8.395 141.749 6.565 151.449 6.376 158.479 5.354 157.145 4.231 156.837 3.411 156.632 1.758 157.402 2.035 159.608 2.982 167.152-1.081 171.514 1.467 178.904-0.286 186.91 2.679 193.838 2.275 202.511 2.224 204.255 2.502 205.744 2.944 206.154 4.899 208.361 2.048 212.672 2.351 217.342 22.413 249.262 44.178 227.195 64.732 241.872 70.07 231.608 66.057 245.516 68.189 243.36 69.855 240.846 71.066 251.263 72.946 245.362 73.237 243.668 72.795 239.665 73.83 240.435 74.372 240.846 74.852 240.743 74.927 238.382 75.041 234.841 74.044 237.048 73.779 235.201 76.643 225.861 75.937 248.081 78.624 247.158 78.498 244.438 77.716 240.538 79.318 241.051 80.908 237.151 80.959 233.918 82.372 242.693 82.422 244.592 82.675 245.926 83.078 246.85 87.494 237.305 91.885 250.237 96.516 245.926 99.355 241.205 102.08 248.492 104.957 246.696 105.967 245.259 106.989 242.693 107.96 247.004 119.859 247.928 132.539 244.079 143.82 247.158 173.963 241.41 206.176 249.518 237.96 241.923 245.455 238.998 253.24 234.841 260.545 231.506 260.545 231.506 266.463 222.371 266.463 181.316S267.725 145.393 267.914 112.703C268.103 80.013 268.987 78.679 267.725 53.02Z" opacity="1" fill="#ee3e38" data-fill-palette-color="tertiary"></path><g transform="matrix(1,0,0,1,55.76832000000002,26.230666666666668)"><svg width="156.8543526734926" viewBox="5.320000171661377 -35.77000045776367 28.810001373291016 35.77000045776367" height="194.73866666666666" data-palette-color="#ffffff"><path d="M10.11 0L5.32 0 5.32-35.77 10.11-35.77 10.11-20.56 29.35-20.56 29.35-35.77 34.13-35.77 34.13 0 29.35 0 29.35-16.77 10.11-16.77 10.11 0Z" opacity="1" transform="matrix(1,0,0,1,0,0)" fill="#ffffff" class="wordmark-text-0" data-fill-palette-color="quaternary" id="text-0"></path></svg></g></svg></g></svg></g></svg></g><g></g></svg></g><defs></defs></svg><rect width="268.39099267349263" height="247.2" fill="none" stroke="none" visibility="hidden"></rect></g></svg></g></svg>